<?xml version="1.0" encoding="UTF-8"?>
<svg version="1.1" xmlns="http://www.w3.org/2000/svg" width="48" height="48">
<path d="M0 0 C0.83683319 0.02265427 1.67366638 0.04530853 2.53585815 0.06864929 C4.30285954 0.11857594 6.06972485 0.17353577 7.83642578 0.2331543 C10.55089288 0.32409163 13.26544037 0.39868581 15.98046875 0.47070312 C17.69534101 0.52117587 19.41018627 0.5725762 21.125 0.625 C21.94163116 0.6479866 22.75826233 0.67097321 23.59963989 0.69465637 C29.3134811 0.89551235 29.3134811 0.89551235 30.4296875 2.01171875 C30.81505217 6.31240545 30.90003046 10.63474221 31.0546875 14.94921875 C31.10625 16.16802734 31.1578125 17.38683594 31.2109375 18.64257812 C31.25476562 19.80466797 31.29859375 20.96675781 31.34375 22.1640625 C31.3845166 23.23648193 31.4252832 24.30890137 31.46728516 25.41381836 C31.4296875 28.01171875 31.4296875 28.01171875 30.4296875 30.01171875 C29.7696875 30.01171875 29.1096875 30.01171875 28.4296875 30.01171875 C28.3265625 30.60984375 28.2234375 31.20796875 28.1171875 31.82421875 C27.28499092 34.47211697 26.79035646 35.51662841 24.4296875 37.01171875 C20.9296875 37.01171875 20.9296875 37.01171875 17.4296875 36.01171875 C16.4296875 34.34505208 15.4296875 32.67838542 14.4296875 31.01171875 C10.83049327 30.11579792 10.83049327 30.11579792 7.4296875 30.01171875 C6.9965625 31.46578125 6.9965625 31.46578125 6.5546875 32.94921875 C5.4296875 36.01171875 5.4296875 36.01171875 3.4296875 37.01171875 C0.5546875 37.38671875 0.5546875 37.38671875 -2.5703125 37.01171875 C-4.9453125 34.63671875 -4.9453125 34.63671875 -6.5703125 32.01171875 C-6.5703125 31.35171875 -6.5703125 30.69171875 -6.5703125 30.01171875 C-8.271875 30.04265625 -8.271875 30.04265625 -10.0078125 30.07421875 C-13.5703125 30.01171875 -13.5703125 30.01171875 -14.5703125 29.01171875 C-14.66885905 27.36831008 -14.70003661 25.72057265 -14.6953125 24.07421875 C-14.69789062 23.17832031 -14.70046875 22.28242188 -14.703125 21.359375 C-14.5703125 19.01171875 -14.5703125 19.01171875 -13.5703125 17.01171875 C-13.1674218 13.81789426 -12.80156728 10.62635221 -12.49609375 7.421875 C-12.28705013 5.60425848 -11.9362395 3.80434991 -11.5703125 2.01171875 C-7.66791465 -0.58987981 -4.50715351 -0.16118323 0 0 Z " fill="#140B09" transform="translate(15.5703125,5.98828125)"/>
<path d="M0 0 C1.51815699 0.00015911 3.0363194 0.00585313 4.55444336 0.01586914 C5.35208603 0.01728409 6.1497287 0.01869904 6.97154236 0.02015686 C9.52916146 0.02577223 12.08669429 0.03832727 14.64428711 0.05102539 C16.37410356 0.05603841 18.10392137 0.06060166 19.83374023 0.06469727 C24.08312264 0.07574664 28.33244023 0.09302153 32.58178711 0.11352539 C32.58178711 1.10352539 32.58178711 2.09352539 32.58178711 3.11352539 C31.81866211 2.94852539 31.05553711 2.78352539 30.26928711 2.61352539 C27.54582475 2.02207143 27.54582475 2.02207143 24.58178711 2.11352539 C24.91178711 5.74352539 25.24178711 9.37352539 25.58178711 13.11352539 C30.05881075 14.17889744 30.05881075 14.17889744 32.58178711 14.11352539 C32.58178711 11.14352539 32.58178711 8.17352539 32.58178711 5.11352539 C32.91178711 5.11352539 33.24178711 5.11352539 33.58178711 5.11352539 C34.52032717 12.15257583 34.68986743 19.01625111 34.58178711 26.11352539 C33.80963867 25.80157227 33.03749023 25.48961914 32.24194336 25.16821289 C28.51455887 23.68472341 28.51455887 23.68472341 24.58178711 23.11352539 C24.00428711 23.75290039 23.42678711 24.39227539 22.83178711 25.05102539 C19.79190606 27.83758302 17.69022268 27.61924615 13.68725586 27.44946289 C10.98513364 27.01832651 9.63218371 25.88110867 7.58178711 24.11352539 C5.60178711 23.78352539 3.62178711 23.45352539 1.58178711 23.11352539 C1.25178711 16.51352539 0.92178711 9.91352539 0.58178711 3.11352539 C-0.73821289 3.11352539 -2.05821289 3.11352539 -3.41821289 3.11352539 C-4.07821289 4.10352539 -4.73821289 5.09352539 -5.41821289 6.11352539 C-4.34682538 0.14436639 -4.34682538 0.14436639 0 0 Z " fill="#DF4321" transform="translate(10.418212890625,7.886474609375)"/>
<path d="M0 0 C1.51815699 0.00015911 3.0363194 0.00585313 4.55444336 0.01586914 C5.35208603 0.01728409 6.1497287 0.01869904 6.97154236 0.02015686 C9.52916146 0.02577223 12.08669429 0.03832727 14.64428711 0.05102539 C16.37410356 0.05603841 18.10392137 0.06060166 19.83374023 0.06469727 C24.08312264 0.07574664 28.33244023 0.09302153 32.58178711 0.11352539 C32.58178711 1.10352539 32.58178711 2.09352539 32.58178711 3.11352539 C31.85991211 2.94852539 31.13803711 2.78352539 30.39428711 2.61352539 C27.71267703 2.13679471 25.29597947 2.07703205 22.58178711 2.11352539 C22.59338867 2.89598633 22.60499023 3.67844727 22.61694336 4.48461914 C22.6259668 5.4965332 22.63499023 6.50844727 22.64428711 7.55102539 C22.65588867 8.56036133 22.66749023 9.56969727 22.67944336 10.60961914 C22.58178711 13.11352539 22.58178711 13.11352539 21.58178711 14.11352539 C19.27385117 13.89221647 17.00135768 13.52877153 14.71069336 13.17211914 C13.65688477 13.14311523 13.65688477 13.14311523 12.58178711 13.11352539 C11.92178711 13.77352539 11.26178711 14.43352539 10.58178711 15.11352539 C6.95678711 15.23852539 6.95678711 15.23852539 3.58178711 15.11352539 C2.41102012 11.13291762 1.32429308 7.19730822 0.58178711 3.11352539 C-0.73821289 3.11352539 -2.05821289 3.11352539 -3.41821289 3.11352539 C-4.07821289 4.10352539 -4.73821289 5.09352539 -5.41821289 6.11352539 C-4.34682538 0.14436639 -4.34682538 0.14436639 0 0 Z " fill="#7C2D1B" transform="translate(10.418212890625,7.886474609375)"/>
<path d="M0 0 C0.33 0 0.66 0 1 0 C3.01880878 18.96238245 3.01880878 18.96238245 1 23 C0.34 23 -0.32 23 -1 23 C-1.103125 23.598125 -1.20625 24.19625 -1.3125 24.8125 C-2.14469658 27.46039822 -2.63933104 28.50490966 -5 30 C-8.5 30 -8.5 30 -12 29 C-13.5 26.5 -13.5 26.5 -15 24 C-18.59919423 23.10407917 -18.59919423 23.10407917 -22 23 C-22.433125 24.4540625 -22.433125 24.4540625 -22.875 25.9375 C-24 29 -24 29 -26 30 C-28.875 30.375 -28.875 30.375 -32 30 C-34.375 27.625 -34.375 27.625 -36 25 C-36 24.34 -36 23.68 -36 23 C-37.7015625 23.0309375 -37.7015625 23.0309375 -39.4375 23.0625 C-43 23 -43 23 -44 22 C-44.203125 19.8203125 -44.203125 19.8203125 -44.25 17.125 C-44.27578125 16.24070312 -44.3015625 15.35640625 -44.328125 14.4453125 C-43.94503183 11.59035628 -43.21462117 10.76004103 -41 9 C-39.57142857 17.57142857 -39.57142857 17.57142857 -42 21 C-39.36 21 -36.72 21 -34 21 C-33.34 22.98 -32.68 24.96 -32 27 C-29.60280568 27.67958603 -29.60280568 27.67958603 -27 28 C-26.34 27.34 -25.68 26.68 -25 26 C-25.3269756 23.38419521 -25.82039068 21.35921863 -27 19 C-26.14921875 19.48339844 -26.14921875 19.48339844 -25.28125 19.9765625 C-21.59826444 21.62886082 -17.95883387 21.63781212 -14 21 C-11.77022004 19.02098426 -11.77022004 19.02098426 -10 17 C-5.98611653 17.10292009 -3.34830266 18.93735613 0 21 C-0.03552979 20.39937744 -0.07105957 19.79875488 -0.10766602 19.17993164 C-0.26468681 16.47440314 -0.41369797 13.76849243 -0.5625 11.0625 C-0.64661133 9.64420898 -0.64661133 9.64420898 -0.73242188 8.19726562 C-0.78076172 7.29814453 -0.82910156 6.39902344 -0.87890625 5.47265625 C-0.9260376 4.64000244 -0.97316895 3.80734863 -1.02172852 2.94946289 C-1 1 -1 1 0 0 Z " fill="#070605" transform="translate(45,13)"/>
<path d="M0 0 C1.65 0.33 3.3 0.66 5 1 C5 7.6 5 14.2 5 21 C6.98 21 8.96 21 11 21 C12.9375 22.6875 12.9375 22.6875 14 25 C13.75925978 28.37036311 13.41201979 29.58798021 11 32 C8.5 31.8125 8.5 31.8125 6 31 C3.54608431 27.31912647 3.77197241 24.55644412 3.875 20.3125 C3.88402344 19.61060547 3.89304687 18.90871094 3.90234375 18.18554688 C3.92586296 16.45688475 3.96173287 14.72839855 4 13 C2.35 12.67 0.7 12.34 -1 12 C-1.02687279 10.18757948 -1.04633715 8.37504767 -1.0625 6.5625 C-1.07410156 5.55316406 -1.08570313 4.54382813 -1.09765625 3.50390625 C-1 1 -1 1 0 0 Z " fill="#190905" transform="translate(7,10)"/>
<path d="M0 0 C0.33 0 0.66 0 1 0 C1.33 2.64 1.66 5.28 2 8 C3.32 8.33 4.64 8.66 6 9 C6 12.63 6 16.26 6 20 C3.13822943 21.43088528 1.06624227 20.59991697 -2 20 C-1.814375 18.88625 -1.62875 17.7725 -1.4375 16.625 C-0.68319343 13.17431139 -0.68319343 13.17431139 -2 11 C-1.67 10.34 -1.34 9.68 -1 9 C-0.77532169 7.46331135 -0.59203195 5.92031946 -0.4375 4.375 C-0.35371094 3.55773437 -0.26992187 2.74046875 -0.18359375 1.8984375 C-0.12300781 1.27195312 -0.06242188 0.64546875 0 0 Z " fill="#E04320" transform="translate(5,14)"/>
<path d="M0 0 C2.4375 0.8125 2.4375 0.8125 4.4375 3.8125 C4.6875 6.375 4.6875 6.375 4.4375 8.8125 C2.4375 10.8125 2.4375 10.8125 0 11.125 C-2.5625 10.8125 -2.5625 10.8125 -4.375 9.6875 C-6.10708662 6.95262639 -5.96623601 4.97509871 -5.5625 1.8125 C-2.5625 -0.1875 -2.5625 -0.1875 0 0 Z " fill="#3B4747" transform="translate(37.5625,30.1875)"/>
<path d="M0 0 C2.64 0 5.28 0 8 0 C8.02688151 1.64574566 8.04634123 3.29161413 8.0625 4.9375 C8.07410156 5.85402344 8.08570313 6.77054688 8.09765625 7.71484375 C8 10 8 10 7 11 C4.66055264 10.71269945 2.3260857 10.38063221 0 10 C0 6.7 0 3.4 0 0 Z " fill="#CCDBDB" transform="translate(25,11)"/>
<path d="M0 0 C2.625 0.25 2.625 0.25 4.5 1.4375 C5.625 3.25 5.625 3.25 5.4375 5.8125 C4.625 8.25 4.625 8.25 2.625 10.25 C0.125 10.0625 0.125 10.0625 -2.375 9.25 C-4.375 6.25 -4.375 6.25 -4.0625 3.625 C-3.10785714 0.32714286 -3.10785714 0.32714286 0 0 Z " fill="#0C2627" transform="translate(15.375,31.75)"/>
<path d="M0 0 C2.33294775 -0.04241723 4.66702567 -0.04092937 7 0 C8 1 8 1 8.125 4.5 C8 8 8 8 7 9 C4.66702567 9.04092937 2.33294775 9.04241723 0 9 C0 6.03 0 3.06 0 0 Z " fill="#CDDBDB" transform="translate(14,12)"/>
<path d="M0 0 C1.98 0 3.96 0 6 0 C6 3.3 6 6.6 6 10 C4.35 10 2.7 10 1 10 C0 9 0 9 -0.09765625 6.93359375 C-0.08605469 6.10988281 -0.07445312 5.28617188 -0.0625 4.4375 C-0.05347656 3.61121094 -0.04445312 2.78492188 -0.03515625 1.93359375 C-0.02355469 1.29550781 -0.01195312 0.65742188 0 0 Z " fill="#CCDBDB" transform="translate(36,11)"/>
<path d="M0 0 C2.80362763 -0.22732116 4.46186517 -0.34081872 6.875 1.1875 C8 3 8 3 7.8125 5.5625 C7 8 7 8 5 10 C2.375 9.625 2.375 9.625 0 9 C0 8.01 0 7.02 0 6 C2.475 6.99 2.475 6.99 5 8 C5 6.35 5 4.7 5 3 C2.525 2.01 2.525 2.01 0 1 C0 0.67 0 0.34 0 0 Z " fill="#106668" transform="translate(13,32)"/>
<path d="M0 0 C0.99 0.33 1.98 0.66 3 1 C3 3.97 3 6.94 3 10 C1 8.875 1 8.875 -1 7 C-1.3125 3.875 -1.3125 3.875 -1 1 C-0.67 0.67 -0.34 0.34 0 0 Z " fill="#ADB9B9" transform="translate(8,11)"/>
<path d="M0 0 C2.875 -0.125 2.875 -0.125 6 0 C8 2 8 2 8.25 4.5 C8 7 8 7 6 9 C3.375 9.125 3.375 9.125 1 9 C0.67 8.34 0.34 7.68 0 7 C1.65 6.67 3.3 6.34 5 6 C5 4.68 5 3.36 5 2 C3.35 1.67 1.7 1.34 0 1 C0 0.67 0 0.34 0 0 Z " fill="#10686A" transform="translate(34,32)"/>
<path d="M0 0 C1.67542976 0.28604898 3.34385343 0.61781233 5 1 C4.67 2.32 4.34 3.64 4 5 C3.67 4.01 3.34 3.02 3 2 C2.34 2 1.68 2 1 2 C0.91995518 5.5219721 0.95994298 8.61981469 2 12 C1.01 11.34 0.02 10.68 -1 10 C-1.328125 7.87109375 -1.328125 7.87109375 -1.25 5.4375 C-1.23453125 4.63183594 -1.2190625 3.82617188 -1.203125 2.99609375 C-1 1 -1 1 0 0 Z " fill="#1B1512" transform="translate(7,10)"/>
<path d="M0 0 C2.97 0.99 5.94 1.98 9 3 C8.67 3.66 8.34 4.32 8 5 C5.69 4.67 3.38 4.34 1 4 C0.67 2.68 0.34 1.36 0 0 Z " fill="#1A0804" transform="translate(1,32)"/>
<path d="M0 0 C1.32 0.66 2.64 1.32 4 2 C3.67 2.99 3.34 3.98 3 5 C1.68 4.34 0.36 3.68 -1 3 C-0.67 2.01 -0.34 1.02 0 0 Z " fill="#A2A2A2" transform="translate(14,34)"/>
</svg>
